<svg xmlns="http://www.w3.org/2000/svg"  viewBox="0 0 54 75">
  <defs>
    <style>
      .cls-1 {
        fill: #b6d5dc;
        fill-rule: evenodd;
      }
    </style>
  </defs>
  <path class="cls-1" d="M974,983.857c-20.443,0-26.383-4.228-27-4.774l0.154-3.823c0.077-.078,5.477-4.837,5.477-11.78,0-9.128,2.083-16.384,6.172-21.455a19.194,19.194,0,0,1,15.2-7.256c6.017,0,10.494,2.575,14.2,7.256a33.777,33.777,0,0,1,7.172,21.455c0,7.022,5.4,11.78,5.481,11.78l0.15,2.823C1000.38,978.629,994.443,983.857,974,983.857Zm-23-7.217a22.945,22.945,0,0,0,2.664.949c3.61,1.122,10.141,2.416,20.8,2.416,13.064,0,19.111-1.985,22.549-3.365-2.321-2.934-5.415-6.025-5.415-12.584,0-8.629-1.891-14.618-5.586-19.105-3.094-3.884-6.477-5.955-11.548-5.955s-10.368,2.071-13.547,5.955c-3.7,4.573-4.587,10.476-4.587,19.105C956.331,970.615,953.323,973.706,951,976.64ZM974,995c-6.326,0-11.417-6.086-11.417-11.547l3.748-.433c0,3.935,3.5,7.969,7.669,7.969s7.67-4.034,7.67-7.969l3.747,0.433C985.417,988.913,980.326,995,974,995Zm6.32-63.96c-2.469-2.5-10.557-2.5-13.026,0l-1.625-2.667a11.455,11.455,0,0,1,16.277,0Z" transform="translate(-947 -922.5)"/>
</svg>
