<svg xmlns="http://www.w3.org/2000/svg"   viewBox="0 0 50 75">
  <defs>
    <style>
      .cls-1 {
        fill: #b6d5dc;
        fill-rule: evenodd;
      }
    </style>
  </defs>
  <path class="cls-1" d="M609.992,984.174a1.827,1.827,0,0,1-1.158-.414c-12.954-10.549-18.869-20.4-21.551-26.818a25.485,25.485,0,0,1-1.672-4.991c-0.108-.461-0.157-0.747-0.172-0.843a25.848,25.848,0,0,1-.444-4.767,25,25,0,1,1,49.993,0,25.931,25.931,0,0,1-.442,4.761c-0.014.088-.064,0.377-0.173,0.849a25.549,25.549,0,0,1-1.671,4.991c-2.682,6.417-8.6,16.27-21.551,26.818A1.83,1.83,0,0,1,609.992,984.174Zm-20.9-33.646c0.009,0.057.045,0.253,0.118,0.566,0,0.006,0,.014,0,0.021a21.647,21.647,0,0,0,1.435,4.28c0.009,0.019.017,0.037,0.025,0.057,2.431,5.826,7.749,14.721,19.312,24.424,11.564-9.7,16.882-18.6,19.313-24.424,0.007-.02.016-0.039,0.024-0.057a21.659,21.659,0,0,0,1.436-4.281c0-.007,0-0.015,0-0.021,0.071-.3.106-0.5,0.119-0.562,0.005-.03.009-0.06,0.015-0.089a22.123,22.123,0,0,0,.385-4.1,21.3,21.3,0,1,0-42.591,0,22.047,22.047,0,0,0,.386,4.1C589.086,950.471,589.091,950.5,589.1,950.528Zm21.194,10.877a15.443,15.443,0,0,1,0-30.884,15.007,15.007,0,0,1,8.516,2.638,1.893,1.893,0,0,1,.5,2.606,1.834,1.834,0,0,1-2.569.5,11.353,11.353,0,0,0-6.444-2,11.691,11.691,0,1,0,11.529,11.69,11.758,11.758,0,0,0-.918-4.581,1.886,1.886,0,0,1,.976-2.461,1.841,1.841,0,0,1,2.428.99,15.53,15.53,0,0,1,1.215,6.052A15.355,15.355,0,0,1,610.29,961.405Zm22.052,25.377c0-2.072-1.347-4.993-7.766-7.144a1.846,1.846,0,0,0-2.338,1.192,1.882,1.882,0,0,0,1.176,2.37c3.591,1.2,5.227,2.7,5.227,3.581,0,1.855-6.583,5.466-18.649,5.466s-18.649-3.611-18.649-5.466c0-.856,1.572-2.32,5.023-3.511a1.883,1.883,0,0,0,1.155-2.381,1.843,1.843,0,0,0-2.348-1.171c-6.224,2.148-7.53,5.027-7.53,7.064,0,6.052,11.243,9.218,22.349,9.218S632.342,992.834,632.342,986.782Z" transform="translate(-585 -921)"/>
</svg>
