<svg xmlns="http://www.w3.org/2000/svg"   viewBox="0 0 79 75">
  <defs>
    <style>
      .cls-1 {
        fill: #b6d5dc;
        fill-rule: evenodd;
      }
    </style>
  </defs>
  <path id="Shape_10_copy" data-name="Shape 10 copy" class="cls-1" d="M287.633,990.659H256.958c-2.768,0-8.375-3.652-8.375-6.636V956.831a1.675,1.675,0,0,1,.85-1.463c6.119-3.431,9.214-9.527,12.444-18.883v-8.967a1.675,1.675,0,0,1,.236-0.861,5.445,5.445,0,0,1,4.8-2.657c2.622,0,5.381,1.592,7.382,4.243,2.017,2.687,4.9,8.619,2.519,19.014h14c3.117,0,10.187,3.224,10.187,8.525,0,1.746-.206,4.41-1.313,5.969,0.871,2.447,1.037,6.416-1.639,9.213,0.22,4.714-.96,8.139-3.45,10.015a12.7,12.7,0,0,1-2.9,7.517A5.431,5.431,0,0,1,287.633,990.659Zm-35.626-32.7v25.8c0.267,0.88,3.58,3.243,4.965,3.243H287.12a2.452,2.452,0,0,0,1.552-1.011,8.8,8.8,0,0,0,2.019-5.879,1.652,1.652,0,0,1,.843-1.674c2.653-1.438,2.725-5.676,2.538-8.078a1.651,1.651,0,0,1,.582-1.392c2.372-1.983,1.64-5.62.96-6.66a1.669,1.669,0,0,1-.15-1.507,1.639,1.639,0,0,1,1.147-.988,22.893,22.893,0,0,0,.4-3.834c0-2.669-4.855-5.1-6.743-5.1H274.4a1.607,1.607,0,0,1-1.3-.647,1.659,1.659,0,0,1-.268-1.438c2.091-7.428,1.571-13.953-1.405-17.915-1.588-2.121-3.45-2.869-4.652-2.869a2.12,2.12,0,0,0-1.686.7v8.557a1.755,1.755,0,0,1-.088.536C261.745,947.264,258.4,953.977,252.007,957.958ZM246.083,994H227.829A5.848,5.848,0,0,1,222,988.142v-35.03a5.846,5.846,0,0,1,5.829-5.852h18.254a5.847,5.847,0,0,1,5.83,5.852v35.03A5.849,5.849,0,0,1,246.083,994ZM228.378,951a2.412,2.412,0,0,0-2.368,2.447v34.1a2.412,2.412,0,0,0,2.368,2.45h17.25a2.412,2.412,0,0,0,2.368-2.45v-34.1A2.412,2.412,0,0,0,245.628,951h-17.25Z" transform="translate(-222 -921.5)"/>
</svg>
