<svg xmlns="http://www.w3.org/2000/svg"  viewBox="0 0 66 75">
  <defs>
    <style>
      .cls-1 {
        fill: #b6d5dc;
        fill-rule: evenodd;
      }
    </style>
  </defs>
  <path class="cls-1" d="M1365.08,994.011h-52.16a7.083,7.083,0,0,1-6.92-7.136V964.656a7.313,7.313,0,0,1,1.89-4.946,6.987,6.987,0,0,1,5.03-2.19h52.16a7.083,7.083,0,0,1,6.92,7.136v22.219A6.98,6.98,0,0,1,1365.08,994.011Zm-52.16-32.923a3.4,3.4,0,0,0-2.31,1.054,3.457,3.457,0,0,0-.99,2.514v22.219a3.456,3.456,0,0,0,3.22,3.568H1365a3.394,3.394,0,0,0,3.21-3.568V964.656a3.448,3.448,0,0,0-3.21-3.568h-52.08Zm56.28-.649h-3.71V934.247a2.678,2.678,0,0,0-2.8-2.595h-47.22a2.879,2.879,0,0,0-1.97.811,2.469,2.469,0,0,0-.74,1.784v26.192h-3.71V934.247a6.375,6.375,0,0,1,1.81-4.379,6.534,6.534,0,0,1,4.61-1.865h47.3a6.321,6.321,0,0,1,6.43,6.244v26.192Zm-9.23.163a1.811,1.811,0,0,1-1.81-1.784v-4.7h-38.73v4.7a1.815,1.815,0,0,1-3.63,0v-6.569a1.82,1.82,0,0,1,1.82-1.784h42.43a1.82,1.82,0,0,1,1.82,1.784v6.569A1.84,1.84,0,0,1,1359.97,960.6Zm-3.21-7.623a1.82,1.82,0,0,1-1.82-1.784v-3.73h-31.89v3.73a1.81,1.81,0,0,1-3.62,0v-5.514a1.811,1.811,0,0,1,1.81-1.784h35.52a1.811,1.811,0,0,1,1.81,1.784V951.2A1.811,1.811,0,0,1,1356.76,952.979Zm-3.22-6.893a1.811,1.811,0,0,1-1.81-1.784v-3.487h-25.05V944.3a1.815,1.815,0,0,1-3.63,0v-5.271a1.819,1.819,0,0,1,1.82-1.783h28.76a1.817,1.817,0,0,1,1.81,1.783V944.3A1.84,1.84,0,0,1,1353.54,946.086Zm-4.86,34.707h-18.95a1.811,1.811,0,0,1-1.81-1.784v-4.622a1.81,1.81,0,0,1,3.62,0v2.757h15.33v-2.757a1.81,1.81,0,0,1,3.62,0v4.622A1.709,1.709,0,0,1,1348.68,980.793Z" transform="translate(-1306 -923.5)"/>
</svg>
