<svg xmlns="http://www.w3.org/2000/svg"  viewBox="0 0 15 15.031">
  <defs>
    <style>
      .cls-1 {
        fill-rule: evenodd;
      }
    </style>
  </defs>
  <path id="Icon" class="cls-1" d="M235.118,52.854H239.5v6.691a2.959,2.959,0,0,1-2.967,2.951h-9.066a2.96,2.96,0,0,1-2.967-2.951V52.854h4.362a3.788,3.788,0,0,0-.71,2.21,3.838,3.838,0,0,0,7.676,0A3.781,3.781,0,0,0,235.118,52.854Zm4.382-2.406v1.938h-4.775a3.851,3.851,0,0,0-5.469,0H224.5V50.448c0-.995-0.008-1.666.75-2.2v3H226V47.5c0.138-.055.6,0.035,0.75,0v3.751l0.648-.029V47.5l0.069,0h0.783v3.751H229V47.5h7.533A2.96,2.96,0,0,1,239.5,50.448ZM238.144,49.2a0.475,0.475,0,0,0-.476-0.474h-1.6a0.475,0.475,0,0,0-.476.474v1.63a0.474,0.474,0,0,0,.476.474h1.6a0.474,0.474,0,0,0,.476-0.474V49.2h0Zm-9.11,5.86a2.928,2.928,0,0,1,1.009-2.21,2.957,2.957,0,0,1,3.894,0A2.947,2.947,0,1,1,229.034,55.064Zm0.781,0A2.185,2.185,0,1,0,232,52.89,2.179,2.179,0,0,0,229.815,55.064Z" transform="translate(-224.5 -47.469)"/>
</svg>
