<svg xmlns="http://www.w3.org/2000/svg"   viewBox="0 0 9.031 15">
  <defs>
    <style>
      .cls-1 {
        fill-rule: evenodd;
      }
    </style>
  </defs>
  <path class="cls-1" d="M387.512,54.74a3.874,3.874,0,1,0-4.021-3.87A3.951,3.951,0,0,0,387.512,54.74Zm0-5.473a1.6,1.6,0,1,1-1.665,1.6A1.636,1.636,0,0,1,387.512,49.267Zm1.626,8.631a7.687,7.687,0,0,0,2.335-.931,1.11,1.11,0,0,0,.369-1.564,1.2,1.2,0,0,0-1.624-.357,5.272,5.272,0,0,1-5.413,0,1.2,1.2,0,0,0-1.624.357,1.11,1.11,0,0,0,.369,1.564,7.7,7.7,0,0,0,2.335.931l-2.248,2.164a1.1,1.1,0,0,0,0,1.6,1.21,1.21,0,0,0,1.666,0l2.208-2.126,2.21,2.127a1.209,1.209,0,0,0,1.665,0,1.1,1.1,0,0,0,0-1.6Z" transform="translate(-383 -47)"/>
</svg>
