<svg xmlns="http://www.w3.org/2000/svg"   viewBox="0 0 16 13">
  <defs>
    <style>
      .cls-1 {
        fill-rule: evenodd;
      }
    </style>
  </defs>
  <path id="Icon" class="cls-1" d="M292.562,50.563a5.8,5.8,0,0,1-1.832.519,3.506,3.506,0,0,0,1.377-1.793,5.354,5.354,0,0,1-2.06.729v0a3.3,3.3,0,0,0-5.6,3.016h0a9.522,9.522,0,0,1-6.992-3.424,3.3,3.3,0,0,0,1,4.36,2.118,2.118,0,0,1-1.441-.372,3.178,3.178,0,0,0,2.546,3.225,2.59,2.59,0,0,1-1.374.1,3.12,3.12,0,0,0,2.95,2.241,5.409,5.409,0,0,1-4.572,1.369A9.913,9.913,0,0,0,281.726,62a9.17,9.17,0,0,0,9.238-9.64c0-.006,0-0.012,0-0.017s0-.029,0-0.042,0-.032,0-0.05A5.679,5.679,0,0,0,292.562,50.563Z" transform="translate(-276.562 -49)"/>
</svg>
