<svg xmlns="http://www.w3.org/2000/svg" xmlns:xlink="http://www.w3.org/1999/xlink"   viewBox="0 0 19 11.125">
  <defs>
    <style>
      .cls-1 {
        fill: #d60000;
        fill-rule: evenodd;
        filter: url(#filter);
      }
    </style>
    <filter id="filter" x="325" y="50" width="19" height="11.125" filterUnits="userSpaceOnUse">
      <feFlood result="flood" flood-color="#fff"/>
      <feComposite result="composite" operator="in" in2="SourceGraphic"/>
      <feBlend result="blend" in2="SourceGraphic"/>
    </filter>
  </defs>
  <path id="Shape_F_3_copy_3" data-name="Shape F_3 copy 3" class="cls-1" d="M334.3,60.985h1.136a0.953,0.953,0,0,0,.518-0.23,0.856,0.856,0,0,0,.156-0.507s-0.022-1.565.685-1.793,1.592,1.5,2.541,2.158a1.7,1.7,0,0,0,1.263.372l2.538,0s1.327-.1.7-1.163a8.612,8.612,0,0,0-1.887-2.218c-1.591-1.5-1.378-1.258.539-3.853,1.167-1.581,1.633-2.546,1.488-2.959a1.128,1.128,0,0,0-.992-0.326h-2.863a0.681,0.681,0,0,0-.369.075,0.821,0.821,0,0,0-.252.336,16.566,16.566,0,0,1-1.055,2.286c-1.272,2.195-1.781,2.311-1.989,2.175-0.484-.318-0.363-1.276-0.363-1.957,0-2.127.318-3.014-.618-3.244A4.814,4.814,0,0,0,334.137,50a6.074,6.074,0,0,0-2.371.246c-0.325.162-.575,0.522-0.423,0.543a1.277,1.277,0,0,1,.844.431,2.848,2.848,0,0,1,.282,1.314s0.168,2.5-.393,2.815c-0.385.213-.913-0.222-2.047-2.213a18.124,18.124,0,0,1-1.02-2.169,0.865,0.865,0,0,0-.236-0.323,1.167,1.167,0,0,0-.439-0.18h-2.715a0.915,0.915,0,0,0-.557.192,0.61,0.61,0,0,0-.01.492s2.125,5.09,4.532,7.636A6.525,6.525,0,0,0,334.3,60.985Z" transform="translate(-325 -50)"/>
</svg>
